<svg width="52" height="52" viewBox="0 0 52 52" fill="none" xmlns="http://www.w3.org/2000/svg">
<g clip-path="url(#clip0_121_27)">
<path d="M3.25 3.53806C-0.836334 7.78256 -5.96046e-07 12.2914 -5.96046e-07 25.9891C-5.96046e-07 37.3641 -1.98467 48.7672 8.40233 51.4517C11.6458 52.2859 40.3845 52.2859 43.6237 51.4474C47.9483 50.3316 51.467 46.8237 51.948 40.7072C52.0152 39.8536 52.0152 12.1397 51.9458 11.2687C51.4345 4.75356 47.424 0.998731 42.1395 0.23823C40.9283 0.0627304 40.6857 0.0107304 34.4717 -0.000102922C12.4302 0.0107304 7.5985 -0.97077 3.25 3.53806Z" fill="url(#paint0_linear_121_27)"/>
<path d="M25.9957 6.80124C18.1285 6.80124 10.6578 6.10141 7.80433 13.4247C6.62567 16.4494 6.79683 20.3776 6.79683 26.0022C6.79683 30.9379 6.63867 35.5767 7.80433 38.5776C10.6513 45.9053 18.1827 45.2033 25.9913 45.2033C33.5248 45.2033 41.2923 45.9876 44.1805 38.5776C45.3613 35.5226 45.188 31.6529 45.188 26.0022C45.188 18.5012 45.6018 13.6587 41.964 10.0231C38.2807 6.33974 33.2995 6.80124 25.987 6.80124H25.9957ZM24.2753 10.2614C40.6857 10.2354 42.7743 8.41108 41.6217 33.7546C41.2122 42.7181 34.3872 41.7344 25.9978 41.7344C10.7012 41.7344 10.2613 41.2967 10.2613 25.9936C10.2613 10.5127 11.4747 10.2701 24.2753 10.2571V10.2614ZM36.244 13.4486C34.9722 13.4486 33.9408 14.4799 33.9408 15.7517C33.9408 17.0236 34.9722 18.0549 36.244 18.0549C37.5158 18.0549 38.5472 17.0236 38.5472 15.7517C38.5472 14.4799 37.5158 13.4486 36.244 13.4486ZM25.9957 16.1417C20.5508 16.1417 16.1373 20.5574 16.1373 26.0022C16.1373 31.4471 20.5508 35.8606 25.9957 35.8606C31.4405 35.8606 35.8518 31.4471 35.8518 26.0022C35.8518 20.5574 31.4405 16.1417 25.9957 16.1417ZM25.9957 19.6019C34.4565 19.6019 34.4673 32.4026 25.9957 32.4026C17.537 32.4026 17.524 19.6019 25.9957 19.6019Z" fill="white"/>
</g>
<defs>
<linearGradient id="paint0_linear_121_27" x1="3.34971" y1="48.6786" x2="51.6782" y2="6.85085" gradientUnits="userSpaceOnUse">
<stop stop-color="#FFDD55"/>
<stop offset="0.5" stop-color="#FF543E"/>
<stop offset="1" stop-color="#C837AB"/>
</linearGradient>
<clipPath id="clip0_121_27">
<rect width="52" height="52" fill="white"/>
</clipPath>
</defs>
</svg>
