<svg width="20" height="20" viewBox="0 0 20 20" fill="none" xmlns="http://www.w3.org/2000/svg">
<g clip-path="url(#clip0_14_0)">
<path d="M19.9804 5.88005C19.9335 4.81738 19.7617 4.0868 19.5155 3.45374C19.2615 2.78176 18.8708 2.18014 18.359 1.68002C17.8588 1.1721 17.2533 0.777435 16.5891 0.527447C15.9523 0.281274 15.2256 0.109427 14.1629 0.0625732C13.0923 0.0117516 12.7524 0 10.037 0C7.32167 0 6.98179 0.0117516 5.91514 0.0586052C4.85247 0.105459 4.12189 0.277459 3.48898 0.523479C2.81685 0.777435 2.21524 1.16814 1.71511 1.68002C1.2072 2.18014 0.812681 2.78573 0.562541 3.44992C0.316369 4.0868 0.144522 4.81341 0.0976684 5.87609C0.0468468 6.9467 0.0350952 7.28658 0.0350952 10.002C0.0350952 12.7173 0.0468468 13.0572 0.0937003 14.1239C0.140554 15.1865 0.312554 15.9171 0.558726 16.5502C0.812681 17.2221 1.2072 17.8238 1.71511 18.3239C2.21524 18.8318 2.82082 19.2265 3.48501 19.4765C4.12189 19.7226 4.8485 19.8945 5.91133 19.9413C6.97782 19.9883 7.31785 19.9999 10.0332 19.9999C12.7486 19.9999 13.0885 19.9883 14.1551 19.9413C15.2178 19.8945 15.9484 19.7226 16.5813 19.4765C17.9254 18.9568 18.9881 17.8941 19.5077 16.5502C19.7537 15.9133 19.9257 15.1865 19.9726 14.1239C20.0194 13.0572 20.0312 12.7173 20.0312 10.002C20.0312 7.28658 20.0272 6.9467 19.9804 5.88005ZM18.1793 14.0457C18.1363 15.0225 17.9722 15.5499 17.8355 15.9015C17.4994 16.7728 16.8079 17.4643 15.9366 17.8004C15.585 17.9372 15.0537 18.1012 14.0808 18.1441C13.0259 18.1911 12.7095 18.2027 10.041 18.2027C7.37249 18.2027 7.05214 18.1911 6.00107 18.1441C5.02431 18.1012 4.49687 17.9372 4.14524 17.8004C3.71165 17.6402 3.31698 17.3862 2.99664 17.0541C2.66454 16.7298 2.41059 16.3391 2.25034 15.9055C2.11359 15.5539 1.94953 15.0225 1.90664 14.0497C1.85964 12.9948 1.84804 12.6783 1.84804 10.0097C1.84804 7.34122 1.85964 7.02087 1.90664 5.96995C1.94953 4.99319 2.11359 4.46575 2.25034 4.11412C2.41059 3.68038 2.66454 3.28586 3.00061 2.96536C3.32477 2.63327 3.71547 2.37931 4.14921 2.21921C4.50084 2.08247 5.03225 1.9184 6.00503 1.87537C7.05993 1.82851 7.37645 1.81676 10.0448 1.81676C12.7173 1.81676 13.0337 1.82851 14.0848 1.87537C15.0615 1.9184 15.589 2.08247 15.9406 2.21921C16.3742 2.37931 16.7688 2.63327 17.0892 2.96536C17.4213 3.28967 17.6752 3.68038 17.8355 4.11412C17.9722 4.46575 18.1363 4.99701 18.1793 5.96995C18.2262 7.02484 18.2379 7.34122 18.2379 10.0097C18.2379 12.6783 18.2262 12.9908 18.1793 14.0457Z" fill="#00FF00"/>
<path d="M10.0371 4.86426C7.20068 4.86426 4.89935 7.16543 4.89935 10.002C4.89935 12.8385 7.20068 15.1397 10.0371 15.1397C12.8736 15.1397 15.1748 12.8385 15.1748 10.002C15.1748 7.16543 12.8736 4.86426 10.0371 4.86426ZM10.0371 13.3347C8.19696 13.3347 6.70436 11.8422 6.70436 10.002C6.70436 8.16172 8.19696 6.66927 10.0371 6.66927C11.8773 6.66927 13.3698 8.16172 13.3698 10.002C13.3698 11.8422 11.8773 13.3347 10.0371 13.3347Z" fill="#00FF00"/>
<path d="M16.5775 4.66085C16.5775 5.32321 16.0404 5.86028 15.3779 5.86028C14.7155 5.86028 14.1785 5.32321 14.1785 4.66085C14.1785 3.99834 14.7155 3.46143 15.3779 3.46143C16.0404 3.46143 16.5775 3.99834 16.5775 4.66085Z" fill="white"/>
</g>
<defs>
<clipPath id="clip0_14_0">
<rect width="20" height="20" fill="white"/>
</clipPath>
</defs>
</svg>
