<svg width="32" height="32" viewBox="0 0 32 32" fill="none" xmlns="http://www.w3.org/2000/svg">
<path d="M30.3662 8.5018C30.0205 7.21658 29.0072 6.20346 27.7222 5.85739C25.3746 5.21506 15.984 5.21506 15.984 5.21506C15.984 5.21506 6.59381 5.21506 4.24622 5.83304C2.9859 6.17874 1.94788 7.21677 1.60217 8.5018C0.984375 10.8492 0.984375 15.7174 0.984375 15.7174C0.984375 15.7174 0.984375 20.6102 1.60217 22.9331C1.94824 24.2181 2.96118 25.2312 4.2464 25.5773C6.61853 26.2198 15.9844 26.2198 15.9844 26.2198C15.9844 26.2198 25.3746 26.2198 27.7222 25.6018C29.0074 25.2559 30.0205 24.2428 30.3666 22.9578C30.9842 20.6102 30.9842 15.7422 30.9842 15.7422C30.9842 15.7422 31.0089 10.8492 30.3662 8.5018V8.5018ZM12.9943 20.2149V11.22L20.803 15.7174L12.9943 20.2149Z" fill="#222222"/>
</svg>
