<svg width="32" height="32" viewBox="0 0 32 32" fill="none" xmlns="http://www.w3.org/2000/svg">
<g clip-path="url(#clip0_126_17)">
<path d="M31.7148 23.1562C31.6288 23.0122 31.0968 21.8561 28.5366 19.48C25.8564 16.9918 26.2164 17.3958 29.4446 13.0935C31.4108 10.4733 32.1968 8.87318 31.9508 8.18913C31.7168 7.53708 30.2707 7.7091 30.2707 7.7091L25.4623 7.7371C25.4623 7.7371 25.1063 7.6891 24.8403 7.84711C24.5823 8.00312 24.4163 8.36315 24.4163 8.36315C24.4163 8.36315 23.6542 10.3913 22.6381 12.1154C20.496 15.7537 19.6379 15.9457 19.2879 15.7197C18.4738 15.1937 18.6778 13.6035 18.6778 12.4755C18.6778 8.94919 19.2119 7.47908 17.6358 7.09905C17.1117 6.97304 16.7277 6.88904 15.3896 6.87503C13.6735 6.85703 12.2194 6.88104 11.3973 7.28306C10.8493 7.55108 10.4272 8.14913 10.6852 8.18313C11.0033 8.22514 11.7233 8.37715 12.1053 8.89719C12.5994 9.56723 12.5814 11.0753 12.5814 11.0753C12.5814 11.0753 12.8654 15.2257 11.9193 15.7417C11.2693 16.0957 10.3792 15.3737 8.46907 12.0714C7.491 10.3813 6.75095 8.51116 6.75095 8.51116C6.75095 8.51116 6.60894 8.16313 6.35492 7.97712C6.04689 7.7511 5.61486 7.67909 5.61486 7.67909L1.04252 7.7071C1.04252 7.7071 0.356473 7.7271 0.104454 8.02512C-0.119562 8.29114 0.0864529 8.83918 0.0864529 8.83918C0.0864529 8.83918 3.66672 17.2138 7.71902 21.4361C11.4373 25.3064 15.6576 25.0524 15.6576 25.0524H17.5697C17.5697 25.0524 18.1478 24.9884 18.4418 24.6704C18.7138 24.3783 18.7038 23.8303 18.7038 23.8303C18.7038 23.8303 18.6658 21.2641 19.8579 20.8861C21.032 20.514 22.5401 23.3663 24.1382 24.4643C25.3463 25.2944 26.2644 25.1124 26.2644 25.1124L30.5387 25.0524C30.5387 25.0524 32.7749 24.9144 31.7148 23.1562Z" fill="#222222"/>
</g>
<defs>
<clipPath id="clip0_126_17">
<rect width="32" height="32" fill="white"/>
</clipPath>
</defs>
</svg>
