<svg width="64" height="64" viewBox="0 0 64 64" fill="none" xmlns="http://www.w3.org/2000/svg">
<path d="M60.7324 17.0032C60.041 14.4327 58.0144 12.4065 55.4443 11.7144C50.7491 10.4297 31.968 10.4297 31.968 10.4297C31.968 10.4297 13.1876 10.4297 8.49243 11.6656C5.9718 12.3571 3.89575 14.4331 3.20435 17.0032C1.96875 21.698 1.96875 31.4344 1.96875 31.4344C1.96875 31.4344 1.96875 41.22 3.20435 45.8657C3.89648 48.4358 5.92236 50.462 8.4928 51.1542C13.2371 52.4392 31.9687 52.4392 31.9687 52.4392C31.9687 52.4392 50.7491 52.4392 55.4443 51.2032C58.0148 50.5115 60.041 48.4852 60.7331 45.9152C61.9684 41.22 61.9684 31.4839 61.9684 31.4839C61.9684 31.4839 62.0178 21.698 60.7324 17.0032ZM25.9885 40.4293V22.4396L41.6059 31.4344L25.9885 40.4293Z" fill="#DD0000"/>
</svg>
