<svg width="72" height="72" viewBox="0 0 72 72" fill="none" xmlns="http://www.w3.org/2000/svg">
<g filter="url(#filter0_d_122_252)">
<path d="M47.7061 46.2955L41.9363 40.5257C43.3665 38.782 44.2286 36.5486 44.2286 34.1143C44.2286 28.5306 39.698 24 34.1143 24C28.5257 24 24 28.5306 24 34.1143C24 39.698 28.5257 44.2286 34.1143 44.2286C36.5486 44.2286 38.7771 43.3714 40.5208 41.9412L46.2906 47.7061C46.6824 48.098 47.3143 48.098 47.7061 47.7061C48.098 47.3192 48.098 46.6824 47.7061 46.2955ZM34.1143 42.2155C29.6424 42.2155 26.0082 38.5812 26.0082 34.1143C26.0082 29.6473 29.6424 26.0082 34.1143 26.0082C38.5812 26.0082 42.2204 29.6473 42.2204 34.1143C42.2204 38.5812 38.5812 42.2155 34.1143 42.2155Z" fill="white"/>
</g>
<defs>
<filter id="filter0_d_122_252" x="0" y="0" width="72" height="72" filterUnits="userSpaceOnUse" color-interpolation-filters="sRGB">
<feFlood flood-opacity="0" result="BackgroundImageFix"/>
<feColorMatrix in="SourceAlpha" type="matrix" values="0 0 0 0 0 0 0 0 0 0 0 0 0 0 0 0 0 0 127 0" result="hardAlpha"/>
<feOffset/>
<feGaussianBlur stdDeviation="12"/>
<feColorMatrix type="matrix" values="0 0 0 0 1 0 0 0 0 1 0 0 0 0 1 0 0 0 0.75 0"/>
<feBlend mode="normal" in2="BackgroundImageFix" result="effect1_dropShadow_122_252"/>
<feBlend mode="normal" in="SourceGraphic" in2="effect1_dropShadow_122_252" result="shape"/>
</filter>
</defs>
</svg>
